<svg width="42" height="42" viewBox="0 0 42 42" fill="none" xmlns="http://www.w3.org/2000/svg">
<path d="M41.9745 21.3928C41.9745 19.6721 41.8316 18.4164 41.5224 17.1143H21.4149V24.8807H33.2176C32.9797 26.8108 31.6947 29.7175 28.8392 31.6706L28.7991 31.9306L35.1568 36.7435L35.5972 36.7864C39.6424 33.1357 41.9745 27.7641 41.9745 21.3928Z" fill="#27A7CF"/>
<path d="M21.4133 41.8559C27.1956 41.8559 32.0499 39.9956 35.5955 36.7868L28.8375 31.671C27.0291 32.9034 24.6019 33.7638 21.4133 33.7638C15.75 33.7638 10.9433 30.1132 9.22981 25.0673L8.97866 25.0881L2.36795 30.0875L2.28149 30.3224C5.80323 37.1587 13.0371 41.8559 21.4133 41.8559Z" fill="#27A7CF"/>
<path d="M9.23265 25.067C8.78054 23.7649 8.51889 22.3696 8.51889 20.9279C8.51889 19.4861 8.78054 18.091 9.20886 16.7888L9.19689 16.5115L2.50334 11.4318L2.28433 11.5336C0.832859 14.3705 0 17.5562 0 20.9279C0 24.2996 0.832859 27.4852 2.28433 30.3221L9.23265 25.067Z" fill="#27A7CF"/>
<path d="M21.4133 8.09203C25.4347 8.09203 28.1474 9.7895 29.6942 11.208L35.7383 5.44123C32.0262 2.06954 27.1956 0 21.4133 0C13.0371 0 5.80322 4.69709 2.28149 11.5335L9.20602 16.7887C10.9433 11.7428 15.75 8.09203 21.4133 8.09203Z" fill="#27A7CF"/>
</svg>
